PathFileType	4	(X/Y/Z)	pose_F01_0-96.trc
DataRate	CameraRate	NumFrames	NumMarkers	Units	OrigDataRate	OrigDataStartFrame	OrigNumFrames
30	30	9	21	m	30	72	96
Frame#	Time	CHip			RHip			RKnee			RAnkle			RBigToe			RSmallToe			RHeel			LHip			LKnee			LAnkle			LBigToe			LSmallToe			LHeel			Neck			Nose			RShoulder			RElbow			RWrist			LShoulder			LElbow			LWrist			
		X1	Y1	Z1	X2	Y2	Z2	X3	Y3	Z3	X4	Y4	Z4	X5	Y5	Z5	X6	Y6	Z6	X7	Y7	Z7	X8	Y8	Z8	X9	Y9	Z9	X10	Y10	Z10	X11	Y11	Z11	X12	Y12	Z12	X13	Y13	Z13	X14	Y14	Z14	X15	Y15	Z15	X16	Y16	Z16	X17	Y17	Z17	X18	Y18	Z18	X19	Y19	Z19	X20	Y20	Z20	X21	Y21	Z21	
72	2.4	-0.2515117058456057	1.8240663857537947	-0.5720312718399737	-0.2586728614731345	1.8220558785762075	-0.5124243647488261	-0.25847146077799105	1.6853555238133806	-0.4835078997996775	-0.2729363016985186	1.5398485507034807	-0.4338294118488896	-0.2243118731103767	1.5130855522625613	-0.4152184980553826	-0.23736923991711878	1.517783353656645	-0.390864580928162	-0.2792786378139229	1.523982974182655	-0.4396543936564411	-0.2350825643990956	1.823993550949642	-0.6400908688337279	-0.25470487390357255	1.6852116134466182	-0.6235597021536131													-0.2524748011516664	1.9848534785806111	-0.6108723057903973	-0.2191452475019037	2.058810554651354	-0.5935459208153222	-0.2699241619502714	1.982284859365546	-0.5251649536962009	-0.2837897878970024	1.8943826892127398	-0.46920712540148635	-0.2869026940386878	1.8210132342953758	-0.41884896446033304	-0.23287707031402088	1.9862296701214062	-0.696381047367492	-1.1205482596178447	1.822760295561897	0.15527538930712947	-0.2415194434195315	1.8061327744620441	-0.7588308697036527
73	2.433333333333333	-0.24786041424472802	1.8225557980862643	-0.55864110336872	-0.2565977766105625	1.8194380911167316	-0.49661066913477525	-0.2651909222157247	1.6801731522067533	-0.4710753070038407	-0.2712961080709202	1.5393840560466874	-0.4314177007235449	-0.22499526078209536	1.5123311648527376	-0.41011843488037636	-0.23914164093717974	1.5171097997462153	-0.38906415434223	-0.2802099059686811	1.523683339166047	-0.4385379754035051	-0.23588341900720286	1.8227653971502142	-0.622265085691867	-0.252338352811942	1.682136534057861	-0.6170273936549127													-0.2519642299607282	1.9817852536607203	-0.5905226134801589	-0.2184053010681478	2.0570841632600128	-0.5815342697896345	-0.26700063025707854	1.9816681521572852	-0.506882706941292	-0.2820926272117312	1.894310095006469	-0.4587283371180098	-0.280620835678163	1.8189838948755712	-0.40977786284312934	-0.23485041921939775	1.9841490764674827	-0.6740369440840127	-1.1599904339110358	1.8199533868852096	0.21484097275143585	-0.23910049185958737	1.8057152917089112	-0.7371530328621594
74	2.466666666666667	-0.24793076146720727	1.817892724659001	-0.5406409260034417	-0.26355286730627064	1.8156653315611053	-0.47517114253402476	-0.2693539053581751	1.6783023643952144	-0.45733169973128396	-0.27160384669369286	1.5378679939919857	-0.4307932127266461	-0.22482511998032542	1.5115805980263162	-0.41003316838584686	-0.23901735037772429	1.5162906157029252	-0.38892263381919495	-0.28114117412343936	1.523383704149439	-0.4374215571505691	-0.2385820207891127	1.819794153727055	-0.6022299847672022	-0.252132618212339	1.6809483368273856	-0.6041873996441863													-0.2553807682222862	1.98114581275176	-0.5743008952341101	-0.21764143195868102	2.0553214847123193	-0.5691994942814401	-0.2718359777973743	1.9797799717492124	-0.4883034372491257	-0.28039546652646	1.8942375008001986	-0.44824954883453333	-0.2743389773176382	1.8169545554557667	-0.4007067612259256	-0.23651687320266856	1.9835919438634972	-0.660210642657026	-1.0283871467707428	1.8299565615380167	0.09699882454866228	-0.23668154029964322	1.8052978089557783	-0.7154751960206662
75	2.5	-0.2455275895319312	1.8140804997836422	-0.5298757756732223	-0.26285582009446873	1.8115073859471094	-0.46218815887169595	-0.26923794984635857	1.6778345651155468	-0.44854325178733695	-0.2713272805153559	1.5393197969232615	-0.4312583348998466	-0.2229982127858093	1.5098176914679777	-0.41147866349681916	-0.23876031505087056	1.5152143015989126	-0.388921359773099	-0.2800214253744665	1.5236154740302212	-0.4342351947326253	-0.23502937690355202	1.8165160395985527	-0.5886211845881415	-0.2463492698329016	1.6793810165611132	-0.5929023045430929													-0.2584435203205415	1.9818616757404977	-0.558345636182214	-0.21807281829243916	2.052311123310573	-0.5519710382858614	-0.27450466711272475	1.9804160941137847	-0.4722289494771741	-0.2786983058411889	1.894164906593928	-0.4377707605510568	-0.2680571189571134	1.8149252160359621	-0.3916356596087218	-0.24002382993481094	1.9820689197067516	-0.643863450908737	-0.89678385963045	1.8399597361908238	-0.02084332365411129	-0.23426258873969907	1.8048803262026454	-0.6937973591791731
76	2.533333333333333	-0.2499324070354184	1.8113809334047923	-0.5111903839403835	-0.2600866476557542	1.8105099118196888	-0.44681617536558976	-0.26978220483021464	1.674867241093288	-0.4429572107389023	-0.2702170012931478	1.5390187309577488	-0.4279014552970364	-0.22491490276017573	1.5098050666915865	-0.40938476143575747	-0.23883355031448456	1.5155172997306836	-0.3888699591529523	-0.2795209486675725	1.524010972272137	-0.4323557904246277	-0.2337424073153316	1.8141402676654783	-0.5765013181300288	-0.24202385950363658	1.6802893423642722	-0.5802603068031709													-0.25772670360331984	1.9790408316349863	-0.5459971382506374	-0.2214148069570087	2.047878697359126	-0.5348660419178694	-0.274465407551166	1.9786782928301876	-0.4629237450224217	-0.28198941534082655	1.8870919111609148	-0.414993757199343	-0.2617752605965886	1.8128958766161576	-0.38256455799151806	-0.23867747617644874	1.981349238232175	-0.6289390421917744	-0.765180572490157	1.8499629108436308	-0.13868547185688487	-0.23184363717975495	1.8044628434495125	-0.6721195223376798
77	2.566666666666667	-0.25079492257537017	1.8159881704863277	-0.49757384015198897	-0.25979923784702763	1.814239176429337	-0.4387512159460662	-0.2709828354222223	1.675926768546553	-0.4279681937618382	-0.2708510479263178	1.539917561716639	-0.4270473723709068	-0.2232300708257678	1.5111280443942094	-0.41112181331282804	-0.2390146374708146	1.5140381279922042	-0.38827777918191436	-0.2790204719606784	1.5244064705140532	-0.43047638611663	-0.232876191386006	1.8183219948145997	-0.5651836948499316	-0.2346259051302501	1.6898092445012525	-0.5583636218793309													-0.2616503399598356	1.9819727434325838	-0.5333441049855533	-0.22252755634431093	2.0448739272761745	-0.5205876488356526	-0.27312549902298905	1.9817728095540417	-0.4515962502346737	-0.2773762466235992	1.8902671126654564	-0.39372171335921863	-0.25157879648142134	1.8114959514869349	-0.35201981726365905	-0.24932654218808206	1.983194238948333	-0.6097559243879225	-0.6335772853498641	1.859966085496438	-0.25652762005965846	-0.2294246856198108	1.8040453606963796	-0.6504416854961866
78	2.6	-0.2512667760690488	1.8148208156155088	-0.4883996707349311	-0.2637604994633297	1.812090915198198	-0.4252008673961003	-0.26874716118955655	1.6771561028428135	-0.4304068936446818	-0.27022513985177166	1.5391250310042324	-0.4277664210383475	-0.22200093430086837	1.5105128979485674	-0.4078348825640093	-0.23889513654168984	1.5135671240116155	-0.3882694320880739	-0.2809497717700488	1.5239614492670714	-0.4282528567265868	-0.23461411213245242	1.8163434506570404	-0.5505470345058583	-0.22914193319861	1.6923059750564347	-0.5382102258063188													-0.264499413810884	1.979870180766158	-0.5166046031067669	-0.22069770442194364	2.0432385188406967	-0.5134974399630723	-0.27744184428917606	1.979410918966405	-0.43251987371719913	-0.27070870472996744	1.8869642388290775	-0.37321160896638284	-0.24433399192210145	1.8135100864017129	-0.33225478005107567	-0.2501811818534002	1.9815824902359895	-0.6035332167042623	-0.5019739982095712	1.869969260149245	-0.37436976826243196	-0.22700573405986668	1.8036278779432466	-0.6287638486546934
79	2.6333333333333333	-0.25001128746712853	1.81832118849437	-0.4857345880017449	-0.2615392756417405	1.8155973098136748	-0.4279332641037504	-0.26779517876028724	1.6779449183370156	-0.42722884041656595	-0.27053613833810575	1.540935236779513	-0.42759393001355844	-0.223771986101619	1.5100337913983815	-0.4056247182377869	-0.23776632033775755	1.5131961255767332	-0.3849758788930713	-0.27938371948882185	1.5260573202472385	-0.43054263975686385	-0.23744447774970082	1.8196788262159085	-0.543288687108239	-0.23353883343335805	1.6875224255030101	-0.523877439297521													-0.2645031106319947	1.981162835015329	-0.5084297219476782	-0.22177087440947485	2.04029264183449	-0.4993419786866941	-0.2773863654835204	1.978156326108734	-0.42388281041500886	-0.26992214834262984	1.8911675786879905	-0.3707865748871768	-0.24249397746660387	1.8204663447098266	-0.32651506672106634	-0.24739535403855317	1.9837751308492082	-0.5944537400280477	-0.3703707110692782	1.8799724348020521	-0.49221191646520557	-0.22458678249992253	1.8032103951901137	-0.6070860118132002
80	2.6666666666666665	-0.24963446730400782	1.8172390869707944	-0.4820659144783178	-0.26509669603505026	1.8138913961177785	-0.41972544383974036	-0.27176573770240936	1.678204782502171	-0.42272279879418145	-0.27084555336954685	1.5397301275728665	-0.42684600634827186	-0.2237226165818838	1.5092984076543534	-0.4056249364082029	-0.2387404725905612	1.512269745466652	-0.38812561894905695	-0.28151721403405966	1.5267475497821348	-0.42833390203507304	-0.2410945624221881	1.8190527216164165	-0.5353582106018534	-0.23907059073184084	1.6852998721161976	-0.508918894662891													-0.2626160803552477	1.9785371700636152	-0.5016139246326691	-0.2230176856033983	2.0362426892590646	-0.48494858677660435	-0.2772850883088072	1.975317323487185	-0.41468587675860313	-0.27179599833170176	1.8898547885521815	-0.3685166758019865	-0.24252244931888026	1.8170931797990473	-0.3311650953329437	-0.24658441466458084	1.9815296790206516	-0.5913079451462332	-0.2387674239289853	1.8899756094548592	-0.6100540646679791	-0.22904593476639684	1.8110246988740848	-0.5942033508384453
